# xmcd
#
# Track frame offsets:
#	150
#	17735
#	30212
#	42927
#	57385
#	70210
#	84437
#	97000
#	116060
#	137352
#	152035
#	168080
#	188765
#	204042
#	231850
#
# Disc length: 3622
#
# Revision: 2
# Processed by: cddbd v1.5.1PL0 Copyright (c) Steve Scherf et al.
# Submitted via: FreeRIP 2.51 
# Normalized: r1:DSETVAR1,TDELIM( - )
#
DISCID=b50e240f
DTITLE=Various Artist - Funk In Yo Face!
DYEAR=1989
DGENRE=Funk
TTITLE0=Charles Wright and The Watts 103rd St. Rhythm Band - Express Yourself
TTITLE1=Tower Of Power - Down To The Nightclub
TTITLE2=Clarence Reid - Nobody But You, Babe
TTITLE3=Beggining Of The End - Funky Nassau
TTITLE4=Swamp Dogg - Do You Believe?
TTITLE5=Little Richard - Money Is
TTITLE6=Allen Toussaint - Am I Expecting Too Much
TTITLE7=Ben E. King - Supernatural Thing
TTITLE8=Graham Central Station - Release Yourself
TTITLE9=Jimmy Castor Bunch - Bertha Butt Boogie
TTITLE10=Donald Byrd - Thank You For Funking Up My Life
TTITLE11=Sly And The Family Stone - Who In Funk Do You Think You Are
TTITLE12=Slave - Slide
TTITLE13=Bootsy's Rubber Band - The Pinocchio Theory
TTITLE14=Fred Wesley And The Horny Horns Featuring Maceo Parker - Up For The Down Stroke
EXTD=Trading full MP3 albums\nmagus3042@yahoo.com
EXTT0=
EXTT1=
EXTT2=
EXTT3=
EXTT4=
EXTT5=
EXTT6=
EXTT7=
EXTT8=
EXTT9=
EXTT10=
EXTT11=
EXTT12=
EXTT13=
EXTT14=
PLAYORDER=
